<?xml version="1.0" encoding="UTF-8" standalone="no"?><!DOCTYPE svg PUBLIC "-//W3C//DTD SVG 1.1//EN" "http://www.w3.org/Graphics/SVG/1.1/DTD/svg11.dtd"><svg width="100%" height="100%" viewBox="0 0 228 70" version="1.1" xmlns="http://www.w3.org/2000/svg" xmlns:xlink="http://www.w3.org/1999/xlink" xml:space="preserve" xmlns:serif="http://www.serif.com/" style="fill-rule:evenodd;clip-rule:evenodd;stroke-linejoin:round;stroke-miterlimit:2;"><rect id="Artboard1" x="0" y="0" width="227.675" height="69.009" style="fill:none;"/><clipPath id="_clip1"><rect x="0" y="0" width="227.675" height="69.009"/></clipPath><g clip-path="url(#_clip1)"><g id="Layer-1" serif:id="Layer 1"><path d="M18.235,46.686c-3.657,5.26 -8.154,6.116 -10.9,6.116c-3.986,0 -7.108,-2.391 -7.108,-7.971c-0,-1.261 0.199,-2.722 0.532,-4.316l7.107,-33.277l9.83,-1.329l-7.639,35.868c-0.199,0.863 -0.265,1.527 -0.265,2.125c-0,1.859 0.864,2.459 2.723,2.459c2.014,0 3.908,-1.527 5.119,-3.767c-0.004,-0.159 -0.006,-0.321 -0.006,-0.484c0,-8.968 5.513,-23.248 17.07,-23.248c3.786,-0 5.38,1.461 5.38,3.387l0,0.465l0.731,-3.52l9.565,-0l-4.782,22.584c-0.199,0.863 -0.266,1.527 -0.266,2.124c0,1.86 0.863,2.858 2.723,2.858c1.969,-0 3.478,-1.689 4.525,-3.957c-0.007,-0.227 -0.011,-0.458 -0.011,-0.693c0,-8.968 5.513,-23.248 17.07,-23.248c3.786,-0 5.38,1.461 5.38,3.387l0,0.399l0.731,-3.454l9.565,-0l-6.576,30.819c4.047,-1.459 6.503,-3.712 8.361,-9.474c0.002,-0.008 0.004,-0.016 0.005,-0.024l4.516,-21.322l9.566,0l-4.783,22.584c-0.133,0.664 -0.2,1.262 -0.2,1.859c0,1.527 0.533,2.724 1.993,2.724c2.59,0 4.318,-2.525 5.314,-5.845l4.517,-21.322l9.564,0l-4.782,22.584c-0.199,0.863 -0.266,1.527 -0.266,2.124c0,1.86 0.863,2.459 2.724,2.459c2.581,0 4.372,-2.507 5.37,-5.81c0.002,-0.012 0.005,-0.023 0.007,-0.035l4.517,-21.322l9.564,0l-4.783,22.584c-0.199,0.863 -0.266,1.527 -0.266,2.124c0,1.86 0.863,2.459 2.725,2.459c2.576,0 4.954,-2.497 5.96,-5.79l4.532,-21.376l9.565,-0l-0.731,3.454c2.791,-3.189 5.713,-3.72 7.772,-3.72c4.252,-0 7.373,2.192 7.373,7.506c-0,5.38 -3.188,13.418 -3.188,17.136c-0,1.66 0.664,2.791 2.657,2.791c2.333,-0 3.567,-1.526 4.713,-3.9c-0.001,-0.072 -0.001,-0.145 -0.001,-0.219c0,-7.639 4.319,-23.647 17.934,-23.647c5.912,0 7.306,3.056 7.306,6.377c0,7.638 -7.306,13.551 -15.277,14.016c-0.066,0.93 -0.133,1.859 -0.133,2.656c0,4.517 1.594,5.58 4.783,5.58c5.246,0 8.435,-2.923 11.754,-6.706c0,-0.001 0,-0.002 0,-0.003l4.516,-21.322l9.565,0l-4.781,22.584c-0.133,0.531 -0.2,1.129 -0.2,1.66c0,1.527 0.464,2.923 1.992,2.923c2.591,0 4.319,-2.525 5.315,-5.845l4.516,-21.322l9.564,0l-4.781,22.584c-0.199,0.863 -0.266,1.527 -0.266,2.124c-0,1.86 0.864,2.459 2.722,2.459c1.263,0 1.595,-0.199 2.192,-0.4c-0.333,4.783 -3.786,6.841 -7.373,6.841c-3.653,0 -6.043,-2.39 -6.508,-6.308c-3.322,5.445 -7.108,6.308 -9.897,6.308c-3.986,0 -7.106,-2.39 -7.106,-7.97c-0,-0.11 0.001,-0.221 0.004,-0.334c-3.642,4.551 -8.592,8.305 -15.48,8.305c-4.723,0 -8.231,-1.749 -9.658,-5.851c-3.185,5.058 -6.746,5.851 -9.4,5.851c-5.779,-0 -7.838,-3.719 -7.838,-7.505c-0,-4.515 2.989,-12.686 2.989,-16.937c-0,-2.192 -0.797,-3.387 -2.391,-3.387c-2.393,-0 -4.186,2.789 -5.182,6.11l-4.515,21.321l-9.567,-0l0.828,-3.908c-3.34,3.654 -7.067,4.305 -9.461,4.305c-3.434,0 -6.228,-1.775 -6.933,-5.839c-3.453,5.013 -7.503,5.839 -10.2,5.839c-3.786,0 -6.178,-2.191 -6.576,-6.308c-3.321,5.445 -7.041,6.308 -9.83,6.308c-3.38,0 -6.14,-1.72 -6.9,-5.648c-2.598,3.597 -5.835,5.013 -8.64,5.782l-0.996,4.783c-1.993,9.498 -7.572,11.291 -11.956,11.291c-4.052,-0 -7.439,-2.125 -7.439,-6.443c-0,-5.578 5.845,-8.369 10.827,-9.897l0.797,-3.519c-1.926,2.058 -4.517,3.652 -7.971,3.652c-3.48,-0 -6.84,-1.655 -8.201,-6.028c-3.48,5.181 -7.597,6.028 -10.328,6.028c-3.72,-0 -6.11,-2.125 -6.51,-6.109c-2.058,3.054 -5.18,6.109 -9.896,6.109c-3.502,-0 -6.885,-1.677 -8.227,-6.116Zm171.278,-24.57c-3.387,0 -6.641,7.107 -7.971,13.682c5.116,-0.332 9.633,-5.446 9.633,-10.958c0,-1.662 -0.4,-2.724 -1.662,-2.724Zm-125.857,41.713c1.394,-0 2.988,-1.994 3.852,-5.912l0.399,-1.925c-3.388,1.261 -6.51,2.988 -6.51,5.644c-0,0.93 0.797,2.193 2.259,2.193Zm-1.263,-22.649c-0,5.115 2.126,5.181 3.321,5.181c1.794,-0 4.384,-1.795 5.314,-5.181l3.387,-15.742c-0.066,-0.732 -0.597,-2.458 -2.722,-2.458c-5.647,-0 -9.3,11.955 -9.3,18.2Zm-34.935,-0c0,5.115 2.126,5.181 3.321,5.181c1.927,-0 4.716,-1.994 5.513,-5.845l3.188,-15.012c0,-0.798 -0.597,-2.524 -2.722,-2.524c-5.647,-0 -9.3,11.955 -9.3,18.2Z" style="fill:#fff;"/><path d="M137.06,5.5c0,3.038 -2.463,5.5 -5.5,5.5c-3.037,-0 -5.5,-2.462 -5.5,-5.5c0,-3.038 2.463,-5.5 5.5,-5.5c3.037,0 5.5,2.462 5.5,5.5" style="fill:#fff;fill-rule:nonzero;"/></g></g></svg>